<svg width="100" height="100" viewBox="0 0 100 100" fill="none" xmlns="http://www.w3.org/2000/svg">
<g clip-path="url(#clip0_12_132)">
<path d="M11.6378 11.6604V98.2835C11.6378 99.2036 12.3837 99.9495 13.3038 99.9495H76.6054C77.5249 99.9495 78.2707 99.2036 78.2707 98.2835V28.3192C78.2707 28.2821 78.2529 28.2506 78.2495 28.2142C78.2412 28.0681 78.2124 27.924 78.1644 27.786C78.1459 27.7325 78.1328 27.6811 78.1095 27.6289C78.0285 27.4478 77.916 27.2824 77.776 27.141L61.1179 10.483C60.9766 10.3423 60.8105 10.2298 60.628 10.1495C60.5779 10.1282 60.5272 10.1104 60.475 10.0946C60.3357 10.0466 60.1909 10.0178 60.0434 10.0082C60.0153 10.013 59.9823 9.99512 59.9473 9.99512H13.3038C12.3837 9.99512 11.6378 10.7403 11.6378 11.6604ZM72.5838 26.6532H61.6127V15.6821L72.5838 26.6532ZM14.9691 13.3265H58.2813V28.3192C58.2813 29.2387 59.0272 29.9845 59.9467 29.9845H74.9394V96.6182H14.9691V13.3265Z" fill="white"/>
<path d="M24.9645 33.3164H64.944V36.6477H24.9645V33.3164Z" fill="white"/>
<path d="M24.9645 23.3213H38.2913V26.6533H24.9645V23.3213Z" fill="white"/>
<path d="M24.9645 43.3115H51.618V46.6435H24.9645V43.3115Z" fill="white"/>
<path d="M54.9493 43.3115H64.944V46.6435H54.9493V43.3115Z" fill="white"/>
<path d="M24.9645 53.3066H64.944V56.6387H24.9645V53.3066Z" fill="white"/>
<path d="M24.9645 73.2959H64.944V76.6279H24.9645V73.2959Z" fill="white"/>
<path d="M39.9566 63.3018H64.944V66.6331H39.9566V63.3018Z" fill="white"/>
<path d="M24.9645 63.3018H36.6253V66.6331H24.9645V63.3018Z" fill="white"/>
<path d="M24.9645 83.292H31.6279V86.6233H24.9645V83.292Z" fill="white"/>
<path d="M34.9592 83.292H64.944V86.6233H34.9592V83.292Z" fill="white"/>
<path fill-rule="evenodd" clip-rule="evenodd" d="M85.1251 7.70058C85.6717 7.70028 86.1961 7.91729 86.5826 8.30381L89.4943 11.2155C89.8808 11.602 90.0978 12.1263 90.0975 12.673C90.0972 13.2196 89.8796 13.7437 89.4926 14.1297L53.7391 49.8022C53.5873 49.9536 53.4128 50.0804 53.2219 50.178L47.4308 53.1386C46.6354 53.5452 45.6687 53.3927 45.037 52.7612C44.4054 52.1296 44.2529 51.1628 44.6594 50.3675L47.62 44.575C47.7176 44.3841 47.8444 44.2095 47.9959 44.0577L83.6683 8.30543C84.0544 7.91848 84.5785 7.70089 85.1251 7.70058Z" fill="white"/>
<path fill-rule="evenodd" clip-rule="evenodd" d="M90.9509 1.02288C91.7233 0.250985 92.7706 -0.182617 93.8626 -0.182617C94.9545 -0.182617 96.0018 0.250985 96.7742 1.02288L96.7752 1.02383C97.5471 1.79623 97.9807 2.84352 97.9807 3.9355C97.9807 5.02747 97.5471 6.07477 96.7752 6.84716L93.8634 9.76027C93.4771 10.1467 92.9531 10.3638 92.4067 10.3638C91.8604 10.3638 91.3364 10.1467 90.9501 9.76027L88.0384 6.84732C87.2344 6.04297 87.2346 4.73919 88.0388 3.93502L90.9504 1.02335L90.9509 1.02288Z" fill="white"/>
</g>
<defs>
<clipPath id="clip0_12_132">
<rect width="100" height="100" fill="white"/>
</clipPath>
</defs>
</svg>
