<svg width="1854" height="1285" viewBox="0 0 1854 1285" fill="none" xmlns="http://www.w3.org/2000/svg">
<path d="M1186 462L1054.25 662H1020.97L877 462H920.471L1037.28 627.317C1055.39 599.312 1073.5 571.695 1091.61 544.464C1109.72 517.236 1127.6 489.746 1145.26 462H1186Z" fill="white"/>
<path d="M1289 462L1157.25 662H1123.97L980 462H1023.47L1140.28 627.317C1158.39 599.312 1176.5 571.695 1194.61 544.464C1212.72 517.236 1230.6 489.746 1248.26 462H1289Z" fill="white"/>
<path d="M852 586.812C852 605.542 836.554 620.078 805.669 630.432C781.545 638.814 750.903 643 713.742 643C611.916 643 561 616.749 561 564.257H600.812C600.812 602.949 638.459 622.296 713.742 622.296C741.247 622.296 763.923 619.46 781.789 613.793C802.057 607.88 812.194 599.129 812.194 587.545C812.194 573.744 794.328 563.639 758.626 557.23H760.073C750.417 556 740.891 554.767 731.478 553.534C722.07 552.301 712.538 551.071 702.888 549.835C693.231 548.606 682.863 547.248 671.759 545.77C660.661 544.292 650.287 542.811 640.63 541.336C596.239 532.705 574.031 517.057 574.031 494.384C574.031 477.133 588.991 463.701 618.909 454.087H618.186C641.835 446.696 670.543 443 704.329 443C796.505 443 842.593 466.412 842.593 513.237H802.78C802.78 480.213 769.961 463.701 704.329 463.701C679.719 463.701 659.208 466.04 642.795 470.723C623.975 476.39 614.562 484.278 614.562 494.384C614.562 507.694 632.178 517.548 667.405 523.957H665.958C675.614 525.19 685.147 526.487 694.554 527.841C703.961 529.192 713.493 530.491 723.144 531.721C732.8 533.196 743.05 534.617 753.91 535.971C764.771 537.328 775.027 538.618 784.683 539.851C829.567 548.487 852 564.139 852 586.812Z" fill="white"/>
<path d="M1580.58 629.098C1580.14 629.344 1579.8 629.59 1579.58 629.836C1579.36 630.082 1579.02 630.328 1578.58 630.578C1549.63 651.526 1510.66 662 1461.66 662C1413.11 662 1373.92 651.526 1344.08 630.578C1318.69 612.586 1306 589.665 1306 561.816C1306 534.213 1318.91 511.293 1344.75 493.055C1374.58 472.353 1413.78 462 1462.33 462C1486.83 462 1508.98 464.835 1528.8 470.502C1548.63 476.169 1565.89 484.304 1580.58 494.902V466.062H1618V657.931H1580.58V629.098ZM1580.58 561.813C1580.58 540.372 1570.56 522.01 1550.52 506.732C1528.69 490.712 1499.3 482.699 1462.32 482.699C1424.47 482.699 1395.07 490.709 1374.13 506.732C1353.19 521.272 1342.73 539.631 1342.73 561.813C1342.73 583.749 1352.98 602.23 1373.47 617.265C1394.41 633.288 1424.02 641.298 1462.32 641.298C1499.29 641.298 1528.69 633.288 1550.52 617.265C1570.56 601.987 1580.58 583.503 1580.58 561.813Z" fill="white"/>
<path d="M1738.29 660H1704V464.258H1738.29V487.486C1749.31 479.364 1764.41 472.637 1783.6 467.303C1802.78 461.969 1826.25 459.559 1854 460.066V481.395C1834.01 480.631 1816.76 482.156 1802.26 485.962C1787.77 489.771 1775.73 494.914 1766.14 501.387C1756.55 507.857 1749.51 515.351 1745.02 523.855C1740.53 532.36 1738.29 541.052 1738.29 549.938V660H1738.29Z" fill="white"/>
<path d="M0 42.7855L0.0264077 42.7701L0.0880199 42.6838C6.24047 39.1503 12.6878 35.7927 19.386 32.6323C25.8157 29.5953 32.7119 26.6662 40.0526 23.8635C76.5712 9.92402 118.371 2 162.714 2H162.728V2.04625C233.679 2.04933 297.883 22.1769 344.322 54.7178C390.756 87.2525 419.485 132.228 419.493 181.924H419.559V181.958H419.493C419.493 231.667 390.756 276.649 344.313 309.186C297.875 341.718 233.679 361.846 162.745 361.852V361.898H162.67V361.852C131.789 361.849 102.22 358.032 74.8637 351.048C70.3175 349.889 65.9078 348.665 61.6654 347.388C39.2516 340.648 18.5322 331.787 0.0528153 321.18L20.1473 303.973C36.4526 313.334 54.5843 321.106 74.0627 326.965C77.9575 328.136 81.8303 329.212 85.6458 330.187C109.71 336.329 135.653 339.689 162.662 339.689V339.643H162.736V339.689C224.824 339.683 281.09 322.016 321.855 293.456C362.625 264.892 387.851 225.463 387.855 181.955H387.789V181.921H387.855C387.847 138.423 362.625 98.9998 321.864 70.4425C281.094 41.876 224.815 24.2057 162.714 24.2027V24.2458H162.701C123.678 24.2458 87.0453 31.1616 55.174 43.3282C49.2152 45.6036 43.186 48.1843 37.1128 51.0518C31.308 53.7928 25.6528 56.7435 20.1737 59.8884L12.9298 53.688L0 42.7855Z" fill="white"/>
<path fill-rule="evenodd" clip-rule="evenodd" d="M844.535 267.008C845.389 290.85 833.786 316.224 803.801 317.13C774.293 318.048 762.082 302.023 761.182 277.202C760.11 246.946 784.221 212.982 809.358 194.939C814.041 191.523 818.784 188.161 823.494 184.763C825.379 189.991 827.218 195.237 829.129 200.429C837.061 222.63 843.669 243.384 844.535 267.008ZM930.019 12.2737C900.702 29.9154 871.927 55.0404 848.537 76.5362C846.884 78.0499 845.23 79.5758 843.57 81.0956L828.104 91.6611L816.052 81.0956C814.385 79.4238 812.705 77.7642 811.025 76.1046C768.438 33.9033 720.924 2 656.006 2C591.234 2 542 30.9549 542 94.7372C542 139.698 561.997 188.331 618.586 188.331C633.113 188.331 653.718 180.726 666.167 171.371V167.036C665.254 167.061 664.354 167.073 663.481 167.073C617.389 167.073 587.589 145.036 587.589 101.619C587.589 57.8793 613.01 23.2648 664.414 23.2648C726.719 23.2648 771.356 70.4449 799.832 116.227C801.036 118.178 802.253 120.117 803.47 122.057L803.669 122.391C772.096 165.65 730.972 235.67 730.972 287.902C730.972 326.923 763.061 362 806.619 362C862.819 362 895.364 312.613 895.364 265.384C895.364 219.742 876.386 171.918 852.579 132.373C851.13 129.972 849.688 127.546 848.24 125.145L862.534 109.242C886.321 88.8404 915.406 68.7124 946 56.3353C940.668 41.636 935.337 26.9488 930.019 12.2737Z" fill="white"/>
<path fill-rule="evenodd" clip-rule="evenodd" d="M1264.16 322.757C1259.41 319.569 1254.66 316.385 1249.91 313.207C1236.61 324.338 1214.63 330.613 1193.23 330.613C1103.33 330.613 1085.62 257.255 1085.62 208.354V194.425C1095.71 194.425 1105.79 194.425 1115.89 194.431C1193.98 192.274 1255.59 170.719 1255.59 110.013C1255.59 52.3334 1190.42 21 1113.17 21H1012.45V36.9111C1022.63 36.7862 1032.79 36.1615 1043 36.1615C1116.35 36.1615 1193.38 46.7653 1193.38 110.013C1193.38 158.828 1144.7 178.487 1080.28 178.487H996V195.952H1021.22V209.886C1021.22 276.589 1075.46 343.585 1180.07 343.585C1218.45 343.596 1239.33 337.968 1264.16 322.757Z" fill="white"/>
<path fill-rule="evenodd" clip-rule="evenodd" d="M1400 342.919V22.762H1337.8V342.919H1400Z" fill="white"/>
<path fill-rule="evenodd" clip-rule="evenodd" d="M1652.56 362.048C1653.86 355.893 1655.15 349.744 1656.45 343.595C1559.24 337.203 1523.41 293.027 1523.41 222.015C1523.41 146.249 1589.53 97.0628 1699.32 97.0628H1784.28V358.809H1854V0H1784.28V72.3207H1667.37C1536.42 72.3207 1450 126.761 1450 220.292C1450 302.22 1507.8 363.254 1631.71 363.254C1639.2 363.248 1645.87 362.797 1652.56 362.048Z" fill="white"/>
<path d="M541.789 1234.22C541.789 1248.13 533.264 1260.01 516.215 1269.85C499.166 1279.7 477.901 1284.62 452.428 1284.62C425.829 1284.62 399.226 1278.78 372.623 1267.1C346.024 1255.42 321.48 1238.42 299 1216.11L309.677 1208.63C322.787 1220.44 338.524 1231.59 356.885 1242.09C384.237 1256.79 410.087 1264.14 434.442 1264.14C453.177 1264.14 469.376 1260.27 483.054 1252.52C496.728 1244.78 503.562 1234.87 503.562 1222.8C503.562 1212.03 500.755 1204.55 495.135 1200.35C489.515 1196.16 481.835 1194.05 472.092 1194.05C466.098 1194.05 460.288 1197.6 454.668 1204.69C449.053 1211.77 446.236 1219.52 446.236 1227.92L404.085 1217.28C406.333 1210.46 414.766 1203.11 429.377 1195.24C443.239 1188.41 457.291 1185 471.528 1185C489.884 1185 506.185 1189.53 520.422 1198.58C534.672 1207.64 541.789 1219.52 541.789 1234.22Z" fill="white"/>
<path fill-rule="evenodd" clip-rule="evenodd" d="M492 1185V2H457V1185H492Z" fill="white"/>
<path d="M1207.42 1028.58C1248.92 1028.58 1282.3 998.86 1282.3 962.222L1282.55 807.36C1282.55 770.668 1248.92 741 1207.42 741C1165.94 741 1132.29 770.668 1132.29 807.36V962.222C1132.29 998.86 1165.94 1028.58 1207.42 1028.58Z" fill="white"/>
<path d="M1182.37 1115.4V1185H1232.46V1116.15H1232.45C1224.3 1117.16 1216.08 1117.11 1207.56 1117.11C1199.01 1117.11 1190.64 1116.44 1182.37 1115.4Z" fill="white"/>
<path d="M1332.32 963.777C1332.32 1019.09 1276.67 1073.6 1207.5 1073.6C1172.9 1073.6 1141.59 1060.8 1118.92 1040.76L1118.48 1041.14V1041.15L1107.43 1050.84L1083.54 1071.82L1083.57 1071.85C1083.66 1071.93 1083.79 1072.02 1083.89 1072.1C1109.97 1095.05 1144.21 1110.5 1182.36 1115.4C1190.64 1116.44 1199.01 1117.11 1207.56 1117.11C1216.08 1117.11 1224.3 1117.16 1232.45 1116.15C1317.38 1105.42 1382.32 1041.21 1382.32 963.777H1332.32Z" fill="white"/>
<path d="M1082.68 963.777C1082.68 991.843 1095.77 1020.12 1118.92 1040.76L1083.89 1072.1C1052.53 1044.26 1032.68 1006.02 1032.68 963.777H1082.68Z" fill="white"/>
<path d="M913.174 1168.19V1151.46H831.805V1184.93H913.174V1168.19ZM913.174 1112.97V1096.24H831.805V1129.7H913.174V1112.97ZM913.174 1059.42V1042.69H831.805V1076.16H913.174V1059.42Z" fill="#FEEA3A"/>
<path d="M732.637 1008.82V992.15H651.268V1025.49H732.637V1008.82ZM732.637 955.481V938.813H651.268V972.149H732.637V955.481ZM732.637 902.145V885.477H651.268V918.812H732.637V902.145ZM732.637 847.141V830.474H651.268V865.476H732.637V847.141Z" fill="#F7BACF"/>
<path d="M731.691 1168.83V1152.16H652.215V1185.49H731.691V1168.83ZM731.691 1113.82V1097.16H652.215V1130.49H731.691V1113.82ZM731.691 1060.49V1043.82H652.215V1077.15H731.691V1060.49Z" fill="#FE3F80"/>
<path d="M642.369 1168.27V1151.6H561V1184.94H642.369V1168.27ZM642.369 1113.27V1096.6H561V1129.93H642.369V1113.27ZM642.369 1059.93V1043.26H561V1076.6H642.369V1059.93Z" fill="#FEEA3A"/>
<path d="M642.369 992.215V1008.88V1025.55H561V992.215H642.369Z" fill="#FEEA3A"/>
<path d="M822.139 1168.25V1151.59H742.485V1184.92H822.139V1168.25ZM822.139 1113.25V1096.58H742.485V1129.92H822.139V1113.25ZM822.139 1059.91V1043.25H742.485V1076.58H822.139V1059.91Z" fill="#4EC2F6"/>
<path d="M822.906 1008.77V992.068H741.537V1025.48H822.906V1008.77ZM822.906 955.315V938.609H741.537V972.021H822.906V955.315ZM822.906 901.856V885.15H741.537V918.562H822.906V901.856ZM822.906 846.726V830.019H741.537V865.102H822.906V846.726ZM822.906 794.937V776.56H741.537V813.313H822.906V794.937Z" fill="#B1E3FA"/>
<path d="M822.139 1168.25V1151.59H742.485V1184.92H822.139V1168.25ZM822.139 1113.25V1096.58H742.485V1129.92H822.139V1113.25ZM822.139 1059.91V1043.25H742.485V1076.58H822.139V1059.91Z" fill="#4EC2F6"/>
<path d="M822.906 1008.77V992.068H741.537V1025.48H822.906V1008.77ZM822.906 955.315V938.609H741.537V972.021H822.906V955.315ZM822.906 901.856V885.15H741.537V918.562H822.906V901.856ZM822.906 846.726V830.019H741.537V865.102H822.906V846.726ZM822.906 794.937V776.56H741.537V813.313H822.906V794.937Z" fill="#B1E3FA"/>
<path d="M732.637 1008.82V992.15H651.268V1025.49H732.637V1008.82ZM732.637 955.481V938.813H651.268V972.149H732.637V955.481ZM732.637 902.145V885.477H651.268V918.812H732.637V902.145ZM732.637 847.141V830.474H651.268V865.476H732.637V847.141Z" fill="#F7BACF"/>
<path d="M731.691 1168.83V1152.16H652.215V1185.49H731.691V1168.83ZM731.691 1113.82V1097.16H652.215V1130.49H731.691V1113.82ZM731.691 1060.49V1043.82H652.215V1077.15H731.691V1060.49Z" fill="#FE3F80"/>
<path d="M642.369 1168.27V1151.6H561V1184.94H642.369V1168.27ZM642.369 1113.27V1096.6H561V1129.93H642.369V1113.27ZM642.369 1059.93V1043.26H561V1076.6H642.369V1059.93Z" fill="#FEEA3A"/>
<path d="M642.369 992.215V1008.88V1025.55H561V992.215H642.369Z" fill="#FEEA3A"/>
<path d="M913.174 1168.19V1151.46H831.805V1184.93H913.174V1168.19ZM913.174 1112.97V1096.24H831.805V1129.7H913.174V1112.97ZM913.174 1059.42V1042.69H831.805V1076.16H913.174V1059.42Z" fill="#FEEA3A"/>
<path d="M999.628 1168.19V1151.46H918.26V1184.93H999.628V1168.19ZM999.628 1112.97V1096.24H918.26V1129.7H999.628V1112.97ZM999.628 1059.42V1042.69H918.26V1076.16H999.628V1059.42Z" fill="#FE3D02"/>
<path d="M999.628 1008.75V992.012H918.26V1025.48H999.628V1008.75ZM999.628 953.524V936.79H918.26V970.258H999.628V953.524ZM999.628 899.974V883.24H918.26V916.709H999.628V899.974Z" fill="#FE3D02"/>
<path d="M999.628 1168.19V1151.46H918.26V1184.93H999.628V1168.19ZM999.628 1112.97V1096.24H918.26V1129.7H999.628V1112.97ZM999.628 1059.42V1042.69H918.26V1076.16H999.628V1059.42Z" fill="#FE3D02"/>
<path d="M1501.83 1168.19V1151.46H1583.19V1184.93H1501.83V1168.19ZM1501.83 1112.97V1096.24H1583.19V1129.7H1501.83V1112.97ZM1501.83 1059.42V1042.69H1583.19V1076.16H1501.83V1059.42Z" fill="#FEEA3A"/>
<path d="M1682.36 1008.82V992.15H1763.73V1025.49H1682.36V1008.82ZM1682.36 955.481V938.813H1763.73V972.149H1682.36V955.481ZM1682.36 902.145V885.477H1763.73V918.812H1682.36V902.145ZM1682.36 847.141V830.474H1763.73V865.476H1682.36V847.141Z" fill="#F7BACF"/>
<path d="M1683.31 1168.83V1152.16H1762.78V1185.49H1683.31V1168.83ZM1683.31 1113.82V1097.16H1762.78V1130.49H1683.31V1113.82ZM1683.31 1060.49V1043.82H1762.78V1077.15H1683.31V1060.49Z" fill="#FE3F80"/>
<path d="M1772.63 1168.27V1151.6H1854V1184.94H1772.63V1168.27ZM1772.63 1113.27V1096.6H1854V1129.93H1772.63V1113.27ZM1772.63 1059.93V1043.26H1854V1076.6H1772.63V1059.93Z" fill="#FEEA3A"/>
<path d="M1772.63 992.215V1008.88V1025.55H1854V992.215H1772.63Z" fill="#FEEA3A"/>
<path d="M1592.86 1168.25V1151.59H1672.51V1184.92H1592.86V1168.25ZM1592.86 1113.25V1096.58H1672.51V1129.92H1592.86V1113.25ZM1592.86 1059.91V1043.25H1672.51V1076.58H1592.86V1059.91Z" fill="#4EC2F6"/>
<path d="M1592.09 1008.77V992.068H1673.46V1025.48H1592.09V1008.77ZM1592.09 955.315V938.609H1673.46V972.021H1592.09V955.315ZM1592.09 901.856V885.15H1673.46V918.562H1592.09V901.856ZM1592.09 846.726V830.019H1673.46V865.102H1592.09V846.726ZM1592.09 794.937V776.56H1673.46V813.313H1592.09V794.937Z" fill="#B1E3FA"/>
<path d="M1592.86 1168.25V1151.59H1672.51V1184.92H1592.86V1168.25ZM1592.86 1113.25V1096.58H1672.51V1129.92H1592.86V1113.25ZM1592.86 1059.91V1043.25H1672.51V1076.58H1592.86V1059.91Z" fill="#4EC2F6"/>
<path d="M1592.09 1008.77V992.068H1673.46V1025.48H1592.09V1008.77ZM1592.09 955.315V938.609H1673.46V972.021H1592.09V955.315ZM1592.09 901.856V885.15H1673.46V918.562H1592.09V901.856ZM1592.09 846.726V830.019H1673.46V865.102H1592.09V846.726ZM1592.09 794.937V776.56H1673.46V813.313H1592.09V794.937Z" fill="#B1E3FA"/>
<path d="M1682.36 1008.82V992.15H1763.73V1025.49H1682.36V1008.82ZM1682.36 955.481V938.813H1763.73V972.149H1682.36V955.481ZM1682.36 902.145V885.477H1763.73V918.812H1682.36V902.145ZM1682.36 847.141V830.474H1763.73V865.476H1682.36V847.141Z" fill="#F7BACF"/>
<path d="M1683.31 1168.83V1152.16H1762.78V1185.49H1683.31V1168.83ZM1683.31 1113.82V1097.16H1762.78V1130.49H1683.31V1113.82ZM1683.31 1060.49V1043.82H1762.78V1077.15H1683.31V1060.49Z" fill="#FE3F80"/>
<path d="M1772.63 1168.27V1151.6H1854V1184.94H1772.63V1168.27ZM1772.63 1113.27V1096.6H1854V1129.93H1772.63V1113.27ZM1772.63 1059.93V1043.26H1854V1076.6H1772.63V1059.93Z" fill="#FEEA3A"/>
<path d="M1772.63 992.215V1008.88V1025.55H1854V992.215H1772.63Z" fill="#FEEA3A"/>
<path d="M1501.83 1168.19V1151.46H1583.19V1184.93H1501.83V1168.19ZM1501.83 1112.97V1096.24H1583.19V1129.7H1501.83V1112.97ZM1501.83 1059.42V1042.69H1583.19V1076.16H1501.83V1059.42Z" fill="#FEEA3A"/>
<path d="M1415.37 1168.19V1151.46H1496.74V1184.93H1415.37V1168.19ZM1415.37 1112.97V1096.24H1496.74V1129.7H1415.37V1112.97ZM1415.37 1059.42V1042.69H1496.74V1076.16H1415.37V1059.42Z" fill="#FE3D02"/>
<path d="M1415.37 1008.75V992.012H1496.74V1025.48H1415.37V1008.75ZM1415.37 953.524V936.79H1496.74V970.258H1415.37V953.524ZM1415.37 899.974V883.24H1496.74V916.709H1415.37V899.974Z" fill="#FE3D02"/>
<path d="M1415.37 1168.19V1151.46H1496.74V1184.93H1415.37V1168.19ZM1415.37 1112.97V1096.24H1496.74V1129.7H1415.37V1112.97ZM1415.37 1059.42V1042.69H1496.74V1076.16H1415.37V1059.42Z" fill="#FE3D02"/>
</svg>
