<svg width="89" height="72" viewBox="0 0 89 72" fill="none" xmlns="http://www.w3.org/2000/svg">
<g clip-path="url(#clip0_19_298)">
<path d="M20.5331 18.6719C20.5331 16.7608 18.9838 15.2115 17.0727 15.2115C15.1616 15.2115 13.6123 16.7608 13.6123 18.6719V68.467C13.6123 70.3781 15.1616 71.9274 17.0727 71.9274C18.9838 71.9274 20.5331 70.3781 20.5331 68.467V18.6719Z" fill="#FD7401"/>
<path d="M47.7567 18.6719C47.7567 16.7608 46.2074 15.2115 44.2963 15.2115C42.3852 15.2115 40.8359 16.7608 40.8359 18.6719V68.467C40.8359 70.3781 42.3852 71.9274 44.2963 71.9274C46.2074 71.9274 47.7567 70.3781 47.7567 68.467V18.6719Z" fill="#FD7401"/>
<path d="M74.9808 18.6719C74.9808 16.7608 73.4315 15.2115 71.5204 15.2115C69.6093 15.2115 68.0601 16.7608 68.0601 18.6719V68.467C68.0601 70.3781 69.6093 71.9274 71.5204 71.9274C73.4315 71.9274 74.9808 70.3781 74.9808 68.467V18.6719Z" fill="#FD7401"/>
<path d="M34.1449 3.46038C34.1449 1.54927 32.5956 0 30.6845 0C28.7734 0 27.2241 1.54927 27.2241 3.46038V53.2555C27.2241 55.1666 28.7734 56.7159 30.6845 56.7159C32.5956 56.7159 34.1449 55.1666 34.1449 53.2555V3.46038Z" fill="white"/>
<path d="M61.369 3.46038C61.369 1.54927 59.8197 0 57.9086 0C55.9975 0 54.4482 1.54927 54.4482 3.46038V53.2555C54.4482 55.1666 55.9975 56.7159 57.9086 56.7159C59.8197 56.7159 61.369 55.1666 61.369 53.2555V3.46038Z" fill="white"/>
<path d="M6.92075 3.46038C6.92075 1.54927 5.37149 0 3.46038 0C1.54926 0 0 1.54927 0 3.46038V53.2555C0 55.1666 1.54926 56.7159 3.46038 56.7159C5.37149 56.7159 6.92075 55.1666 6.92075 53.2555V3.46038Z" fill="white"/>
<path d="M88.5926 3.46038C88.5926 1.54927 87.0434 0 85.1323 0C83.2211 0 81.6719 1.54927 81.6719 3.46038V53.2555C81.6719 55.1666 83.2211 56.7159 85.1323 56.7159C87.0434 56.7159 88.5926 55.1666 88.5926 53.2555V3.46038Z" fill="white"/>
</g>
<defs>
<clipPath id="clip0_19_298">
<rect width="89" height="72" fill="white"/>
</clipPath>
</defs>
</svg>
